<svg width="1584" height="396" viewBox="0 0 1584 396" fill="none" xmlns="http://www.w3.org/2000/svg">
<g clip-path="url(#clip0_57_8557)">
<rect width="1584" height="396" fill="#FAF8FF"/>
<path d="M-186 285.771C-179.152 279.253 -81.32 2.99845 137.334 117.225C355.988 231.451 801.612 462.388 972.818 445.626C1109.78 432.217 1443.39 150.955 1593.07 12" stroke="#7240F4"/>
<path d="M-121.657 379.647C-106.652 288.761 -46.5017 118.131 74.0602 162.694C224.763 218.398 1081.52 444.732 1266.47 416.294C1414.43 393.543 1531.99 219.571 1572.28 135.428" stroke="#B683F1"/>
<path d="M-184.703 287.662C-177.691 279.444 -80.6179 5.31797 136.06 118.141C353.345 231.189 807.252 462.032 978.734 445.035C1115.92 431.438 1445.17 152.337 1592.65 14.4867" stroke="#7341F4"/>
<path d="M-183.23 289.812C-176.031 279.662 -79.8212 7.95378 134.611 119.182C350.34 230.89 813.659 461.628 985.457 444.364C1122.89 430.552 1447.2 153.908 1592.18 17.3124" stroke="#7543F4"/>
<path d="M-181.581 292.219C-174.173 279.906 -78.9288 10.9059 132.988 120.348C346.975 230.555 820.836 461.175 992.986 443.612C1130.71 429.561 1449.47 155.668 1591.64 20.4772" stroke="#7745F4"/>
<path d="M-179.754 294.884C-172.114 280.176 -77.9398 14.1743 131.193 121.639C343.251 230.184 828.783 460.674 1001.32 442.779C1139.35 428.463 1451.99 157.615 1591.05 23.9811" stroke="#7947F4"/>
<path d="M-177.751 297.806C-169.857 280.472 -76.8561 17.759 129.222 123.054C339.164 229.778 837.497 460.124 1010.47 441.866C1148.84 427.259 1454.75 159.752 1590.41 27.8242" stroke="#7B49F4"/>
<path d="M-175.57 300.987C-167.4 280.794 -75.6758 21.66 127.079 124.595C334.719 229.336 846.981 459.526 1020.42 440.872C1159.16 425.948 1457.75 162.077 1589.7 32.0063" stroke="#7D4BF4"/>
<path d="M-173.214 304.426C-164.745 281.142 -74.4009 25.8773 124.76 126.261C329.911 228.858 857.234 458.879 1031.17 439.797C1170.32 424.532 1461 164.59 1588.94 36.5274" stroke="#804DF3"/>
<path d="M-170.68 308.122C-161.889 281.517 -73.0293 30.4109 122.27 128.051C324.745 228.344 868.256 458.184 1042.74 438.642C1182.32 423.009 1464.49 167.292 1588.12 41.3877" stroke="#8250F3"/>
<path d="M-167.97 312.077C-158.836 281.917 -71.563 35.2608 119.604 129.966C319.216 227.794 880.047 457.44 1055.1 437.407C1195.15 421.38 1468.22 170.182 1587.24 46.5871" stroke="#8553F3"/>
<path d="M-165.082 316.289C-155.582 282.344 -70.0002 40.427 116.765 132.007C313.329 227.208 892.607 456.648 1068.28 436.091C1208.82 419.645 1472.19 173.261 1586.31 52.1255" stroke="#8856F3"/>
<path d="M-162.019 320.76C-152.13 282.797 -68.3426 45.9095 113.751 134.172C307.079 226.586 905.935 455.807 1082.26 434.694C1223.33 417.803 1476.41 176.529 1585.32 58.0031" stroke="#8B59F3"/>
<path d="M-158.777 325.488C-148.478 283.276 -66.5885 51.7083 110.565 136.462C300.47 225.929 920.033 454.918 1097.06 433.216C1238.67 415.855 1480.88 179.985 1584.27 64.2197" stroke="#8F5CF3"/>
<path d="M-155.36 330.474C-144.628 283.781 -64.7396 57.8234 107.204 138.877C293.5 225.236 934.9 453.98 1112.65 431.659C1254.85 413.801 1485.58 183.629 1583.17 70.7754" stroke="#9260F3"/>
<path d="M-151.766 335.718C-140.578 284.312 -62.7942 64.2548 103.67 141.417C286.17 224.506 950.536 452.994 1129.06 430.02C1271.87 411.641 1490.53 187.462 1582.01 77.6703" stroke="#9664F2"/>
<path d="M-147.995 341.22C-136.329 284.869 -60.754 71.0025 99.961 144.082C278.479 223.741 966.94 451.959 1146.27 428.301C1289.73 409.374 1495.72 191.484 1580.79 84.9042" stroke="#9A68F2"/>
<path d="M-144.047 346.979C-131.88 285.452 -58.6173 78.0665 96.0793 146.872C270.428 222.941 984.114 450.876 1164.28 426.501C1308.42 407.001 1501.16 195.694 1579.51 92.4771" stroke="#9E6CF2"/>
<path d="M-139.923 352.997C-127.233 286.062 -56.3859 85.4468 92.0227 149.786C262.015 222.104 1002.06 449.744 1183.11 424.621C1327.95 404.522 1506.84 200.092 1578.18 100.389" stroke="#A370F2"/>
<path d="M-135.621 359.273C-122.386 286.698 -54.0578 93.1433 87.7934 152.826C253.244 221.231 1020.77 448.564 1202.74 422.66C1348.31 401.937 1512.76 204.679 1576.79 108.64" stroke="#A774F2"/>
<path d="M-131.144 365.806C-117.341 287.359 -51.6351 101.156 83.3891 155.99C244.11 220.323 1040.25 447.336 1223.17 420.619C1369.51 399.245 1518.93 209.454 1575.34 117.231" stroke="#AC79F1"/>
<path d="M-126.488 372.597C-112.096 288.047 -49.1157 109.485 78.8121 159.28C234.617 219.378 1060.5 446.058 1244.42 418.497C1391.55 396.447 1525.34 214.418 1573.84 126.16" stroke="#B17EF1"/>
<path d="M439.072 215V192.536H430.972V189.8H450.196V192.536H442.096V215H439.072ZM454.152 215V189.8H456.996V200.204H457.5C457.74 199.676 458.1 199.184 458.58 198.728C459.084 198.248 459.72 197.852 460.488 197.54C461.28 197.228 462.276 197.072 463.476 197.072C464.796 197.072 465.972 197.36 467.004 197.936C468.06 198.488 468.9 199.304 469.524 200.384C470.148 201.44 470.46 202.76 470.46 204.344V215H467.616V204.56C467.616 202.808 467.172 201.536 466.284 200.744C465.42 199.952 464.244 199.556 462.756 199.556C461.052 199.556 459.66 200.108 458.58 201.212C457.524 202.316 456.996 203.96 456.996 206.144V215H454.152ZM484.294 215.504C482.518 215.504 480.958 215.132 479.614 214.388C478.27 213.62 477.226 212.552 476.482 211.184C475.738 209.816 475.366 208.232 475.366 206.432V206C475.366 204.176 475.738 202.58 476.482 201.212C477.226 199.844 478.258 198.788 479.578 198.044C480.898 197.276 482.41 196.892 484.114 196.892C485.77 196.892 487.234 197.252 488.506 197.972C489.778 198.668 490.774 199.676 491.494 200.996C492.214 202.316 492.574 203.864 492.574 205.64V206.936H478.21C478.282 208.832 478.894 210.32 480.046 211.4C481.198 212.456 482.638 212.984 484.366 212.984C485.878 212.984 487.042 212.636 487.858 211.94C488.674 211.244 489.298 210.416 489.73 209.456L492.178 210.644C491.818 211.388 491.314 212.132 490.666 212.876C490.042 213.62 489.214 214.244 488.182 214.748C487.174 215.252 485.878 215.504 484.294 215.504ZM478.246 204.596H489.694C489.598 202.964 489.034 201.692 488.002 200.78C486.994 199.868 485.698 199.412 484.114 199.412C482.506 199.412 481.186 199.868 480.154 200.78C479.122 201.692 478.486 202.964 478.246 204.596ZM504.236 215L512.012 189.8H517.34L525.116 215H521.984L520.04 208.628H509.312L507.368 215H504.236ZM510.068 205.892H519.248L514.928 191.636H514.424L510.068 205.892ZM528.892 215V189.8H531.916V215H528.892ZM546.927 215V189.8H552.795L561.579 213.092H562.047V189.8H565.035V215H559.167L550.419 191.672H549.915V215H546.927ZM576.341 215.504C575.117 215.504 574.001 215.288 572.993 214.856C571.985 214.424 571.193 213.8 570.617 212.984C570.041 212.168 569.753 211.172 569.753 209.996C569.753 208.796 570.041 207.812 570.617 207.044C571.193 206.252 571.985 205.664 572.993 205.28C574.001 204.872 575.129 204.668 576.377 204.668H582.317V203.372C582.317 202.124 581.945 201.14 581.201 200.42C580.481 199.7 579.401 199.34 577.961 199.34C576.545 199.34 575.441 199.688 574.649 200.384C573.857 201.056 573.317 201.968 573.029 203.12L570.365 202.256C570.653 201.272 571.109 200.384 571.733 199.592C572.357 198.776 573.185 198.128 574.217 197.648C575.273 197.144 576.533 196.892 577.997 196.892C580.253 196.892 582.005 197.48 583.253 198.656C584.501 199.808 585.125 201.44 585.125 203.552V211.508C585.125 212.228 585.461 212.588 586.133 212.588H587.753V215H585.269C584.477 215 583.841 214.784 583.361 214.352C582.881 213.896 582.641 213.296 582.641 212.552V212.372H582.209C581.945 212.828 581.585 213.308 581.129 213.812C580.697 214.292 580.097 214.688 579.329 215C578.561 215.336 577.565 215.504 576.341 215.504ZM576.665 213.056C578.345 213.056 579.701 212.564 580.733 211.58C581.789 210.572 582.317 209.168 582.317 207.368V206.972H576.485C575.357 206.972 574.421 207.224 573.677 207.728C572.957 208.208 572.597 208.94 572.597 209.924C572.597 210.908 572.969 211.676 573.713 212.228C574.481 212.78 575.465 213.056 576.665 213.056ZM596.968 215C595.96 215 595.18 214.724 594.628 214.172C594.1 213.62 593.836 212.864 593.836 211.904V199.88H588.544V197.396H593.836V191.132H596.68V197.396H602.44V199.88H596.68V211.472C596.68 212.192 597.028 212.552 597.724 212.552H601.648V215H596.968ZM607.047 215V197.396H609.891V215H607.047ZM608.487 194.66C607.863 194.66 607.335 194.456 606.903 194.048C606.495 193.64 606.291 193.124 606.291 192.5C606.291 191.852 606.495 191.324 606.903 190.916C607.335 190.508 607.863 190.304 608.487 190.304C609.111 190.304 609.627 190.508 610.035 190.916C610.443 191.324 610.647 191.852 610.647 192.5C610.647 193.124 610.443 193.64 610.035 194.048C609.627 194.456 609.111 194.66 608.487 194.66ZM620.335 215L614.035 197.396H617.059L622.351 212.876H622.855L628.147 197.396H631.171L624.871 215H620.335ZM642.603 215.504C640.827 215.504 639.267 215.132 637.923 214.388C636.579 213.62 635.535 212.552 634.791 211.184C634.047 209.816 633.675 208.232 633.675 206.432V206C633.675 204.176 634.047 202.58 634.791 201.212C635.535 199.844 636.567 198.788 637.887 198.044C639.207 197.276 640.719 196.892 642.423 196.892C644.079 196.892 645.543 197.252 646.815 197.972C648.087 198.668 649.083 199.676 649.803 200.996C650.523 202.316 650.883 203.864 650.883 205.64V206.936H636.519C636.591 208.832 637.203 210.32 638.355 211.4C639.507 212.456 640.947 212.984 642.675 212.984C644.187 212.984 645.351 212.636 646.167 211.94C646.983 211.244 647.607 210.416 648.039 209.456L650.487 210.644C650.127 211.388 649.623 212.132 648.975 212.876C648.351 213.62 647.523 214.244 646.491 214.748C645.483 215.252 644.187 215.504 642.603 215.504ZM636.555 204.596H648.003C647.907 202.964 647.343 201.692 646.311 200.78C645.303 199.868 644.007 199.412 642.423 199.412C640.815 199.412 639.495 199.868 638.463 200.78C637.431 201.692 636.795 202.964 636.555 204.596ZM674.09 215.504C671.09 215.504 668.702 214.64 666.926 212.912C665.15 211.16 664.262 208.616 664.262 205.28V199.52C664.262 196.184 665.15 193.652 666.926 191.924C668.702 190.172 671.09 189.296 674.09 189.296C677.066 189.296 679.346 190.124 680.93 191.78C682.538 193.436 683.342 195.704 683.342 198.584V198.764H680.354V198.476C680.354 196.58 679.838 195.032 678.806 193.832C677.798 192.608 676.226 191.996 674.09 191.996C671.954 191.996 670.286 192.656 669.086 193.976C667.886 195.272 667.286 197.096 667.286 199.448V205.352C667.286 207.704 667.886 209.54 669.086 210.86C670.286 212.156 671.954 212.804 674.09 212.804C676.226 212.804 677.798 212.204 678.806 211.004C679.838 209.78 680.354 208.22 680.354 206.324V205.748H683.342V206.216C683.342 209.096 682.538 211.364 680.93 213.02C679.346 214.676 677.066 215.504 674.09 215.504ZM732.624 215.504C731.112 215.504 729.72 215.144 728.448 214.424C727.176 213.704 726.168 212.66 725.424 211.292C724.68 209.924 724.308 208.304 724.308 206.432V205.964C724.308 204.092 724.68 202.484 725.424 201.14C726.168 199.772 727.164 198.728 728.412 198.008C729.684 197.264 731.088 196.892 732.624 196.892C733.848 196.892 734.88 197.06 735.72 197.396C736.584 197.708 737.28 198.116 737.808 198.62C738.336 199.1 738.744 199.616 739.032 200.168H739.536V189.8H742.38V215H739.608V212.084H739.104C738.624 212.972 737.88 213.764 736.872 214.46C735.864 215.156 734.448 215.504 732.624 215.504ZM733.38 212.984C735.204 212.984 736.68 212.408 737.808 211.256C738.96 210.08 739.536 208.448 739.536 206.36V206.036C739.536 203.948 738.96 202.328 737.808 201.176C736.68 200 735.204 199.412 733.38 199.412C731.58 199.412 730.092 200 728.916 201.176C727.764 202.328 727.188 203.948 727.188 206.036V206.36C727.188 208.448 727.764 210.08 728.916 211.256C730.092 212.408 731.58 212.984 733.38 212.984ZM756.404 215.504C754.628 215.504 753.068 215.132 751.724 214.388C750.38 213.62 749.336 212.552 748.592 211.184C747.848 209.816 747.476 208.232 747.476 206.432V206C747.476 204.176 747.848 202.58 748.592 201.212C749.336 199.844 750.368 198.788 751.688 198.044C753.008 197.276 754.52 196.892 756.224 196.892C757.88 196.892 759.344 197.252 760.616 197.972C761.888 198.668 762.884 199.676 763.604 200.996C764.324 202.316 764.684 203.864 764.684 205.64V206.936H750.32C750.392 208.832 751.004 210.32 752.156 211.4C753.308 212.456 754.748 212.984 756.476 212.984C757.988 212.984 759.152 212.636 759.968 211.94C760.784 211.244 761.408 210.416 761.84 209.456L764.288 210.644C763.928 211.388 763.424 212.132 762.776 212.876C762.152 213.62 761.324 214.244 760.292 214.748C759.284 215.252 757.988 215.504 756.404 215.504ZM750.356 204.596H761.804C761.708 202.964 761.144 201.692 760.112 200.78C759.104 199.868 757.808 199.412 756.224 199.412C754.616 199.412 753.296 199.868 752.264 200.78C751.232 201.692 750.596 202.964 750.356 204.596ZM778.782 215V189.8H781.806V215H778.782ZM787.679 215V197.396H790.451V200.384H790.955C791.339 199.544 791.987 198.788 792.899 198.116C793.835 197.42 795.203 197.072 797.003 197.072C798.323 197.072 799.499 197.348 800.531 197.9C801.587 198.452 802.427 199.268 803.051 200.348C803.675 201.428 803.987 202.76 803.987 204.344V215H801.143V204.56C801.143 202.808 800.699 201.536 799.811 200.744C798.947 199.952 797.771 199.556 796.283 199.556C794.579 199.556 793.187 200.108 792.107 201.212C791.051 202.316 790.523 203.96 790.523 206.144V215H787.679ZM815.745 215C814.737 215 813.957 214.724 813.405 214.172C812.877 213.62 812.613 212.864 812.613 211.904V199.88H807.321V197.396H812.613V191.132H815.457V197.396H821.217V199.88H815.457V211.472C815.457 212.192 815.805 212.552 816.501 212.552H820.425V215H815.745ZM833.255 215.504C831.479 215.504 829.919 215.132 828.575 214.388C827.231 213.62 826.187 212.552 825.443 211.184C824.699 209.816 824.327 208.232 824.327 206.432V206C824.327 204.176 824.699 202.58 825.443 201.212C826.187 199.844 827.219 198.788 828.539 198.044C829.859 197.276 831.371 196.892 833.075 196.892C834.731 196.892 836.195 197.252 837.467 197.972C838.739 198.668 839.735 199.676 840.455 200.996C841.175 202.316 841.535 203.864 841.535 205.64V206.936H827.171C827.243 208.832 827.855 210.32 829.007 211.4C830.159 212.456 831.599 212.984 833.327 212.984C834.839 212.984 836.003 212.636 836.819 211.94C837.635 211.244 838.259 210.416 838.691 209.456L841.139 210.644C840.779 211.388 840.275 212.132 839.627 212.876C839.003 213.62 838.175 214.244 837.143 214.748C836.135 215.252 834.839 215.504 833.255 215.504ZM827.207 204.596H838.655C838.559 202.964 837.995 201.692 836.963 200.78C835.955 199.868 834.659 199.412 833.075 199.412C831.467 199.412 830.147 199.868 829.115 200.78C828.083 201.692 827.447 202.964 827.207 204.596ZM846.496 215V189.8H849.34V215H846.496ZM855.32 215V189.8H858.164V215H855.32ZM864.144 215V197.396H866.988V215H864.144ZM865.584 194.66C864.96 194.66 864.432 194.456 864 194.048C863.592 193.64 863.388 193.124 863.388 192.5C863.388 191.852 863.592 191.324 864 190.916C864.432 190.508 864.96 190.304 865.584 190.304C866.208 190.304 866.724 190.508 867.132 190.916C867.54 191.324 867.744 191.852 867.744 192.5C867.744 193.124 867.54 193.64 867.132 194.048C866.724 194.456 866.208 194.66 865.584 194.66ZM872.104 206.288V205.784C872.104 203.936 872.476 202.352 873.22 201.032C873.964 199.712 874.972 198.692 876.244 197.972C877.516 197.252 878.908 196.892 880.42 196.892C882.268 196.892 883.684 197.252 884.668 197.972C885.676 198.668 886.42 199.448 886.9 200.312H887.404V197.396H890.104V219.104C890.104 220.064 889.84 220.82 889.312 221.372C888.784 221.924 888.016 222.2 887.008 222.2H875.056V219.68H886.252C886.972 219.68 887.332 219.32 887.332 218.6V211.904H886.828C886.54 212.432 886.132 212.948 885.604 213.452C885.076 213.956 884.392 214.376 883.552 214.712C882.712 215.024 881.668 215.18 880.42 215.18C878.908 215.18 877.516 214.82 876.244 214.1C874.972 213.38 873.964 212.36 873.22 211.04C872.476 209.696 872.104 208.112 872.104 206.288ZM881.176 212.66C883 212.66 884.476 212.084 885.604 210.932C886.756 209.78 887.332 208.196 887.332 206.18V205.892C887.332 203.852 886.756 202.268 885.604 201.14C884.476 199.988 883 199.412 881.176 199.412C879.376 199.412 877.888 199.988 876.712 201.14C875.56 202.268 874.984 203.852 874.984 205.892V206.18C874.984 208.196 875.56 209.78 876.712 210.932C877.888 212.084 879.376 212.66 881.176 212.66ZM904.13 215.504C902.354 215.504 900.794 215.132 899.45 214.388C898.106 213.62 897.062 212.552 896.318 211.184C895.574 209.816 895.202 208.232 895.202 206.432V206C895.202 204.176 895.574 202.58 896.318 201.212C897.062 199.844 898.094 198.788 899.414 198.044C900.734 197.276 902.246 196.892 903.95 196.892C905.606 196.892 907.07 197.252 908.342 197.972C909.614 198.668 910.61 199.676 911.33 200.996C912.05 202.316 912.41 203.864 912.41 205.64V206.936H898.046C898.118 208.832 898.73 210.32 899.882 211.4C901.034 212.456 902.474 212.984 904.202 212.984C905.714 212.984 906.878 212.636 907.694 211.94C908.51 211.244 909.134 210.416 909.566 209.456L912.014 210.644C911.654 211.388 911.15 212.132 910.502 212.876C909.878 213.62 909.05 214.244 908.018 214.748C907.01 215.252 905.714 215.504 904.13 215.504ZM898.082 204.596H909.53C909.434 202.964 908.87 201.692 907.838 200.78C906.83 199.868 905.534 199.412 903.95 199.412C902.342 199.412 901.022 199.868 899.99 200.78C898.958 201.692 898.322 202.964 898.082 204.596ZM917.371 215V197.396H920.143V200.384H920.647C921.031 199.544 921.679 198.788 922.591 198.116C923.527 197.42 924.895 197.072 926.695 197.072C928.015 197.072 929.191 197.348 930.223 197.9C931.279 198.452 932.119 199.268 932.743 200.348C933.367 201.428 933.679 202.76 933.679 204.344V215H930.835V204.56C930.835 202.808 930.391 201.536 929.503 200.744C928.639 199.952 927.463 199.556 925.975 199.556C924.271 199.556 922.879 200.108 921.799 201.212C920.743 202.316 920.215 203.96 920.215 206.144V215H917.371ZM947.549 215.504C945.845 215.504 944.309 215.144 942.941 214.424C941.597 213.68 940.529 212.624 939.737 211.256C938.969 209.888 938.585 208.268 938.585 206.396V206C938.585 204.104 938.969 202.484 939.737 201.14C940.529 199.772 941.597 198.728 942.941 198.008C944.309 197.264 945.845 196.892 947.549 196.892C949.229 196.892 950.657 197.204 951.833 197.828C953.033 198.452 953.969 199.28 954.641 200.312C955.337 201.344 955.781 202.448 955.973 203.624L953.201 204.2C953.081 203.336 952.793 202.544 952.337 201.824C951.905 201.104 951.293 200.528 950.501 200.096C949.709 199.664 948.737 199.448 947.585 199.448C946.409 199.448 945.353 199.712 944.417 200.24C943.505 200.768 942.773 201.524 942.221 202.508C941.693 203.492 941.429 204.668 941.429 206.036V206.36C941.429 207.728 941.693 208.904 942.221 209.888C942.773 210.872 943.505 211.628 944.417 212.156C945.353 212.684 946.409 212.948 947.585 212.948C949.337 212.948 950.669 212.492 951.581 211.58C952.517 210.668 953.093 209.54 953.309 208.196L956.117 208.808C955.853 209.96 955.373 211.052 954.677 212.084C953.981 213.116 953.033 213.944 951.833 214.568C950.657 215.192 949.229 215.504 947.549 215.504ZM969.029 215.504C967.253 215.504 965.693 215.132 964.349 214.388C963.005 213.62 961.961 212.552 961.217 211.184C960.473 209.816 960.101 208.232 960.101 206.432V206C960.101 204.176 960.473 202.58 961.217 201.212C961.961 199.844 962.993 198.788 964.313 198.044C965.633 197.276 967.145 196.892 968.849 196.892C970.505 196.892 971.969 197.252 973.241 197.972C974.513 198.668 975.509 199.676 976.229 200.996C976.949 202.316 977.309 203.864 977.309 205.64V206.936H962.945C963.017 208.832 963.629 210.32 964.781 211.4C965.933 212.456 967.373 212.984 969.101 212.984C970.613 212.984 971.777 212.636 972.593 211.94C973.409 211.244 974.033 210.416 974.465 209.456L976.913 210.644C976.553 211.388 976.049 212.132 975.401 212.876C974.777 213.62 973.949 214.244 972.917 214.748C971.909 215.252 970.613 215.504 969.029 215.504ZM962.981 204.596H974.429C974.333 202.964 973.769 201.692 972.737 200.78C971.729 199.868 970.433 199.412 968.849 199.412C967.241 199.412 965.921 199.868 964.889 200.78C963.857 201.692 963.221 202.964 962.981 204.596ZM991.407 215V189.8H1001.06C1002.57 189.8 1003.91 190.1 1005.09 190.7C1006.29 191.276 1007.24 192.104 1007.93 193.184C1008.63 194.264 1008.98 195.572 1008.98 197.108V197.576C1008.98 199.088 1008.62 200.396 1007.9 201.5C1007.2 202.58 1006.25 203.408 1005.05 203.984C1003.85 204.56 1002.52 204.848 1001.06 204.848H994.431V215H991.407ZM994.431 202.112H1000.73C1002.34 202.112 1003.61 201.716 1004.55 200.924C1005.48 200.108 1005.95 198.968 1005.95 197.504V197.144C1005.95 195.68 1005.48 194.552 1004.55 193.76C1003.64 192.944 1002.36 192.536 1000.73 192.536H994.431V202.112ZM1013.14 215V189.8H1015.98V215H1013.14ZM1027.36 215.504C1026.14 215.504 1025.02 215.288 1024.01 214.856C1023 214.424 1022.21 213.8 1021.64 212.984C1021.06 212.168 1020.77 211.172 1020.77 209.996C1020.77 208.796 1021.06 207.812 1021.64 207.044C1022.21 206.252 1023 205.664 1024.01 205.28C1025.02 204.872 1026.15 204.668 1027.4 204.668H1033.34V203.372C1033.34 202.124 1032.96 201.14 1032.22 200.42C1031.5 199.7 1030.42 199.34 1028.98 199.34C1027.56 199.34 1026.46 199.688 1025.67 200.384C1024.88 201.056 1024.34 201.968 1024.05 203.12L1021.38 202.256C1021.67 201.272 1022.13 200.384 1022.75 199.592C1023.38 198.776 1024.2 198.128 1025.24 197.648C1026.29 197.144 1027.55 196.892 1029.02 196.892C1031.27 196.892 1033.02 197.48 1034.27 198.656C1035.52 199.808 1036.14 201.44 1036.14 203.552V211.508C1036.14 212.228 1036.48 212.588 1037.15 212.588H1038.77V215H1036.29C1035.5 215 1034.86 214.784 1034.38 214.352C1033.9 213.896 1033.66 213.296 1033.66 212.552V212.372H1033.23C1032.96 212.828 1032.6 213.308 1032.15 213.812C1031.72 214.292 1031.12 214.688 1030.35 215C1029.58 215.336 1028.58 215.504 1027.36 215.504ZM1027.68 213.056C1029.36 213.056 1030.72 212.564 1031.75 211.58C1032.81 210.572 1033.34 209.168 1033.34 207.368V206.972H1027.5C1026.38 206.972 1025.44 207.224 1024.7 207.728C1023.98 208.208 1023.62 208.94 1023.62 209.924C1023.62 210.908 1023.99 211.676 1024.73 212.228C1025.5 212.78 1026.48 213.056 1027.68 213.056ZM1047.99 215C1046.98 215 1046.2 214.724 1045.65 214.172C1045.12 213.62 1044.86 212.864 1044.86 211.904V199.88H1039.56V197.396H1044.86V191.132H1047.7V197.396H1053.46V199.88H1047.7V211.472C1047.7 212.192 1048.05 212.552 1048.74 212.552H1052.67V215H1047.99ZM1060.43 215V199.88H1055.03V197.396H1060.43V192.896C1060.43 191.936 1060.7 191.18 1061.22 190.628C1061.78 190.076 1062.56 189.8 1063.56 189.8H1067.99V192.248H1064.36C1063.64 192.248 1063.28 192.608 1063.28 193.328V197.396H1068.82V199.88H1063.28V215H1060.43ZM1080.16 215.504C1078.38 215.504 1076.81 215.132 1075.44 214.388C1074.1 213.644 1073.04 212.6 1072.28 211.256C1071.53 209.888 1071.16 208.28 1071.16 206.432V205.964C1071.16 204.14 1071.53 202.544 1072.28 201.176C1073.04 199.808 1074.1 198.752 1075.44 198.008C1076.81 197.264 1078.38 196.892 1080.16 196.892C1081.94 196.892 1083.5 197.264 1084.84 198.008C1086.21 198.752 1087.26 199.808 1088.01 201.176C1088.78 202.544 1089.16 204.14 1089.16 205.964V206.432C1089.16 208.28 1088.78 209.888 1088.01 211.256C1087.26 212.6 1086.21 213.644 1084.84 214.388C1083.5 215.132 1081.94 215.504 1080.16 215.504ZM1080.16 212.948C1082.03 212.948 1083.52 212.36 1084.62 211.184C1085.75 209.984 1086.32 208.376 1086.32 206.36V206.036C1086.32 204.02 1085.75 202.424 1084.62 201.248C1083.52 200.048 1082.03 199.448 1080.16 199.448C1078.31 199.448 1076.82 200.048 1075.7 201.248C1074.57 202.424 1074 204.02 1074 206.036V206.36C1074 208.376 1074.57 209.984 1075.7 211.184C1076.82 212.36 1078.31 212.948 1080.16 212.948ZM1094.28 215V197.396H1097.05V199.556H1097.55C1097.87 198.788 1098.35 198.224 1098.99 197.864C1099.64 197.504 1100.49 197.324 1101.55 197.324H1103.64V199.916H1101.37C1100.1 199.916 1099.07 200.276 1098.27 200.996C1097.51 201.692 1097.12 202.784 1097.12 204.272V215H1094.28ZM1107.85 215V197.396H1110.62V199.592H1111.12C1111.46 198.968 1112.01 198.392 1112.78 197.864C1113.55 197.336 1114.63 197.072 1116.02 197.072C1117.39 197.072 1118.49 197.372 1119.33 197.972C1120.2 198.572 1120.82 199.304 1121.2 200.168H1121.71C1122.12 199.304 1122.73 198.572 1123.54 197.972C1124.38 197.372 1125.55 197.072 1127.04 197.072C1128.21 197.072 1129.24 197.312 1130.13 197.792C1131.02 198.272 1131.72 198.968 1132.22 199.88C1132.75 200.768 1133.01 201.836 1133.01 203.084V215H1130.17V203.336C1130.17 202.16 1129.82 201.236 1129.12 200.564C1128.45 199.868 1127.5 199.52 1126.28 199.52C1124.98 199.52 1123.92 199.94 1123.08 200.78C1122.26 201.62 1121.85 202.832 1121.85 204.416V215H1119.01V203.336C1119.01 202.16 1118.66 201.236 1117.96 200.564C1117.29 199.868 1116.34 199.52 1115.12 199.52C1113.82 199.52 1112.76 199.94 1111.92 200.78C1111.1 201.62 1110.69 202.832 1110.69 204.416V215H1107.85Z" fill="#2A0C4E"/>
<path d="M904.94 242V240.5H906.9V229.5H904.94V228H911.96C912.773 228 913.493 228.147 914.12 228.44C914.76 228.733 915.253 229.147 915.6 229.68C915.96 230.2 916.14 230.813 916.14 231.52V231.68C916.14 232.333 916.013 232.873 915.76 233.3C915.507 233.713 915.207 234.04 914.86 234.28C914.513 234.507 914.173 234.673 913.84 234.78V235.06C914.173 235.14 914.52 235.3 914.88 235.54C915.24 235.767 915.54 236.093 915.78 236.52C916.033 236.947 916.16 237.487 916.16 238.14V238.34C916.16 239.1 915.973 239.76 915.6 240.32C915.24 240.867 914.74 241.287 914.1 241.58C913.473 241.86 912.753 242 911.94 242H904.94ZM908.58 240.48H911.76C912.64 240.48 913.313 240.273 913.78 239.86C914.247 239.447 914.48 238.887 914.48 238.18V238C914.48 237.293 914.247 236.733 913.78 236.32C913.313 235.907 912.64 235.7 911.76 235.7H908.58V240.48ZM908.58 234.18H911.82C912.62 234.18 913.26 233.98 913.74 233.58C914.22 233.167 914.46 232.627 914.46 231.96V231.76C914.46 231.08 914.22 230.54 913.74 230.14C913.273 229.727 912.633 229.52 911.82 229.52H908.58V234.18ZM922.623 242.18C921.916 242.18 921.263 242.027 920.663 241.72C920.076 241.413 919.609 240.96 919.263 240.36C918.929 239.747 918.763 239.007 918.763 238.14V232.22H920.343V238.02C920.343 238.993 920.583 239.7 921.063 240.14C921.556 240.58 922.216 240.8 923.043 240.8C923.976 240.8 924.743 240.493 925.343 239.88C925.943 239.267 926.243 238.353 926.243 237.14V232.22H927.823V242H926.283V240.34H926.003C925.789 240.807 925.423 241.233 924.903 241.62C924.383 241.993 923.623 242.18 922.623 242.18ZM931.129 242V232.22H932.709V242H931.129ZM931.929 230.7C931.582 230.7 931.289 230.587 931.049 230.36C930.822 230.133 930.709 229.847 930.709 229.5C930.709 229.14 930.822 228.847 931.049 228.62C931.289 228.393 931.582 228.28 931.929 228.28C932.275 228.28 932.562 228.393 932.789 228.62C933.015 228.847 933.129 229.14 933.129 229.5C933.129 229.847 933.015 230.133 932.789 230.36C932.562 230.587 932.275 230.7 931.929 230.7ZM936.031 242V228H937.611V242H936.031ZM944.533 242C943.973 242 943.54 241.847 943.233 241.54C942.94 241.233 942.793 240.813 942.793 240.28V233.6H939.853V232.22H942.793V228.74H944.373V232.22H947.573V233.6H944.373V240.04C944.373 240.44 944.567 240.64 944.953 240.64H947.133V242H944.533ZM957.189 242V233.6H954.189V232.22H957.189V229.72C957.189 229.187 957.336 228.767 957.629 228.46C957.936 228.153 958.369 228 958.929 228H961.389V229.36H959.369C958.969 229.36 958.769 229.56 958.769 229.96V232.22H961.849V233.6H958.769V242H957.189ZM968.149 242.28C967.162 242.28 966.289 242.073 965.529 241.66C964.782 241.247 964.195 240.667 963.769 239.92C963.355 239.16 963.149 238.267 963.149 237.24V236.98C963.149 235.967 963.355 235.08 963.769 234.32C964.195 233.56 964.782 232.973 965.529 232.56C966.289 232.147 967.162 231.94 968.149 231.94C969.135 231.94 970.002 232.147 970.749 232.56C971.509 232.973 972.095 233.56 972.509 234.32C972.935 235.08 973.149 235.967 973.149 236.98V237.24C973.149 238.267 972.935 239.16 972.509 239.92C972.095 240.667 971.509 241.247 970.749 241.66C970.002 242.073 969.135 242.28 968.149 242.28ZM968.149 240.86C969.189 240.86 970.015 240.533 970.629 239.88C971.255 239.213 971.569 238.32 971.569 237.2V237.02C971.569 235.9 971.255 235.013 970.629 234.36C970.015 233.693 969.189 233.36 968.149 233.36C967.122 233.36 966.295 233.693 965.669 234.36C965.042 235.013 964.729 235.9 964.729 237.02V237.2C964.729 238.32 965.042 239.213 965.669 239.88C966.295 240.533 967.122 240.86 968.149 240.86ZM975.992 242V232.22H977.532V233.42H977.812C977.985 232.993 978.252 232.68 978.612 232.48C978.972 232.28 979.445 232.18 980.032 232.18H981.192V233.62H979.932C979.225 233.62 978.652 233.82 978.212 234.22C977.785 234.607 977.572 235.213 977.572 236.04V242H975.992ZM991.52 242V229.52H987.02V228H997.7V229.52H993.2V242H991.52ZM1002.43 242.28C1001.44 242.28 1000.57 242.073 999.806 241.66C999.059 241.247 998.473 240.667 998.046 239.92C997.633 239.16 997.426 238.267 997.426 237.24V236.98C997.426 235.967 997.633 235.08 998.046 234.32C998.473 233.56 999.059 232.973 999.806 232.56C1000.57 232.147 1001.44 231.94 1002.43 231.94C1003.41 231.94 1004.28 232.147 1005.03 232.56C1005.79 232.973 1006.37 233.56 1006.79 234.32C1007.21 235.08 1007.43 235.967 1007.43 236.98V237.24C1007.43 238.267 1007.21 239.16 1006.79 239.92C1006.37 240.667 1005.79 241.247 1005.03 241.66C1004.28 242.073 1003.41 242.28 1002.43 242.28ZM1002.43 240.86C1003.47 240.86 1004.29 240.533 1004.91 239.88C1005.53 239.213 1005.85 238.32 1005.85 237.2V237.02C1005.85 235.9 1005.53 235.013 1004.91 234.36C1004.29 233.693 1003.47 233.36 1002.43 233.36C1001.4 233.36 1000.57 233.693 999.946 234.36C999.319 235.013 999.006 235.9 999.006 237.02V237.2C999.006 238.32 999.319 239.213 999.946 239.88C1000.57 240.533 1001.4 240.86 1002.43 240.86ZM1010.27 242V232.22H1011.81V233.44H1012.09C1012.28 233.093 1012.58 232.773 1013.01 232.48C1013.44 232.187 1014.04 232.04 1014.81 232.04C1015.57 232.04 1016.18 232.207 1016.65 232.54C1017.13 232.873 1017.48 233.28 1017.69 233.76H1017.97C1018.2 233.28 1018.54 232.873 1018.99 232.54C1019.46 232.207 1020.1 232.04 1020.93 232.04C1021.58 232.04 1022.16 232.173 1022.65 232.44C1023.14 232.707 1023.53 233.093 1023.81 233.6C1024.1 234.093 1024.25 234.687 1024.25 235.38V242H1022.67V235.52C1022.67 234.867 1022.48 234.353 1022.09 233.98C1021.72 233.593 1021.19 233.4 1020.51 233.4C1019.79 233.4 1019.2 233.633 1018.73 234.1C1018.28 234.567 1018.05 235.24 1018.05 236.12V242H1016.47V235.52C1016.47 234.867 1016.28 234.353 1015.89 233.98C1015.52 233.593 1014.99 233.4 1014.31 233.4C1013.59 233.4 1013 233.633 1012.53 234.1C1012.08 234.567 1011.85 235.24 1011.85 236.12V242H1010.27ZM1032 242.28C1031.01 242.28 1030.14 242.073 1029.38 241.66C1028.63 241.247 1028.04 240.667 1027.62 239.92C1027.2 239.16 1027 238.267 1027 237.24V236.98C1027 235.967 1027.2 235.08 1027.62 234.32C1028.04 233.56 1028.63 232.973 1029.38 232.56C1030.14 232.147 1031.01 231.94 1032 231.94C1032.98 231.94 1033.85 232.147 1034.6 232.56C1035.36 232.973 1035.94 233.56 1036.36 234.32C1036.78 235.08 1037 235.967 1037 236.98V237.24C1037 238.267 1036.78 239.16 1036.36 239.92C1035.94 240.667 1035.36 241.247 1034.6 241.66C1033.85 242.073 1032.98 242.28 1032 242.28ZM1032 240.86C1033.04 240.86 1033.86 240.533 1034.48 239.88C1035.1 239.213 1035.42 238.32 1035.42 237.2V237.02C1035.42 235.9 1035.1 235.013 1034.48 234.36C1033.86 233.693 1033.04 233.36 1032 233.36C1030.97 233.36 1030.14 233.693 1029.52 234.36C1028.89 235.013 1028.58 235.9 1028.58 237.02V237.2C1028.58 238.32 1028.89 239.213 1029.52 239.88C1030.14 240.533 1030.97 240.86 1032 240.86ZM1039.84 242V232.22H1041.38V233.42H1041.66C1041.83 232.993 1042.1 232.68 1042.46 232.48C1042.82 232.28 1043.29 232.18 1043.88 232.18H1045.04V233.62H1043.78C1043.07 233.62 1042.5 233.82 1042.06 234.22C1041.63 234.607 1041.42 235.213 1041.42 236.04V242H1039.84ZM1047.38 242V232.22H1048.92V233.42H1049.2C1049.37 232.993 1049.64 232.68 1050 232.48C1050.36 232.28 1050.83 232.18 1051.42 232.18H1052.58V233.62H1051.32C1050.61 233.62 1050.04 233.82 1049.6 234.22C1049.17 234.607 1048.96 235.213 1048.96 236.04V242H1047.38ZM1059.09 242.28C1058.1 242.28 1057.23 242.073 1056.47 241.66C1055.72 241.247 1055.13 240.667 1054.71 239.92C1054.29 239.16 1054.09 238.267 1054.09 237.24V236.98C1054.09 235.967 1054.29 235.08 1054.71 234.32C1055.13 233.56 1055.72 232.973 1056.47 232.56C1057.23 232.147 1058.1 231.94 1059.09 231.94C1060.07 231.94 1060.94 232.147 1061.69 232.56C1062.45 232.973 1063.03 233.56 1063.45 234.32C1063.87 235.08 1064.09 235.967 1064.09 236.98V237.24C1064.09 238.267 1063.87 239.16 1063.45 239.92C1063.03 240.667 1062.45 241.247 1061.69 241.66C1060.94 242.073 1060.07 242.28 1059.09 242.28ZM1059.09 240.86C1060.13 240.86 1060.95 240.533 1061.57 239.88C1062.19 239.213 1062.51 238.32 1062.51 237.2V237.02C1062.51 235.9 1062.19 235.013 1061.57 234.36C1060.95 233.693 1060.13 233.36 1059.09 233.36C1058.06 233.36 1057.23 233.693 1056.61 234.36C1055.98 235.013 1055.67 235.9 1055.67 237.02V237.2C1055.67 238.32 1055.98 239.213 1056.61 239.88C1057.23 240.533 1058.06 240.86 1059.09 240.86ZM1068.09 242L1066.13 232.22H1067.73L1069.35 240.94H1069.63L1071.77 232.22H1074.39L1076.53 240.94H1076.81L1078.43 232.22H1080.03L1078.07 242H1075.37L1073.21 233.28H1072.95L1070.79 242H1068.09ZM1082.59 232.64V231.64H1083.17C1083.65 231.64 1083.89 231.4 1083.89 230.92V230.28H1083.61C1083.22 230.28 1082.9 230.16 1082.63 229.92C1082.38 229.68 1082.25 229.38 1082.25 229.02C1082.25 228.633 1082.38 228.32 1082.63 228.08C1082.9 227.84 1083.22 227.72 1083.61 227.72C1084 227.72 1084.32 227.847 1084.57 228.1C1084.82 228.353 1084.95 228.673 1084.95 229.06V230.92C1084.95 232.067 1084.38 232.64 1083.23 232.64H1082.59ZM1091.63 242.28C1090.42 242.28 1089.39 242 1088.55 241.44C1087.72 240.88 1087.22 239.993 1087.05 238.78L1088.55 238.44C1088.66 239.08 1088.86 239.587 1089.15 239.96C1089.44 240.32 1089.8 240.58 1090.23 240.74C1090.67 240.887 1091.14 240.96 1091.63 240.96C1092.36 240.96 1092.94 240.813 1093.37 240.52C1093.8 240.227 1094.01 239.833 1094.01 239.34C1094.01 238.833 1093.8 238.48 1093.39 238.28C1092.99 238.067 1092.44 237.893 1091.73 237.76L1090.91 237.62C1090.28 237.513 1089.71 237.347 1089.19 237.12C1088.67 236.893 1088.26 236.587 1087.95 236.2C1087.64 235.813 1087.49 235.327 1087.49 234.74C1087.49 233.86 1087.83 233.173 1088.51 232.68C1089.19 232.187 1090.09 231.94 1091.21 231.94C1092.32 231.94 1093.21 232.193 1093.89 232.7C1094.58 233.193 1095.03 233.893 1095.23 234.8L1093.75 235.18C1093.63 234.473 1093.34 233.98 1092.89 233.7C1092.44 233.407 1091.88 233.26 1091.21 233.26C1090.54 233.26 1090.02 233.387 1089.63 233.64C1089.24 233.88 1089.05 234.24 1089.05 234.72C1089.05 235.187 1089.23 235.533 1089.59 235.76C1089.96 235.973 1090.46 236.133 1091.07 236.24L1091.89 236.38C1092.58 236.5 1093.2 236.667 1093.75 236.88C1094.31 237.08 1094.75 237.373 1095.07 237.76C1095.4 238.147 1095.57 238.653 1095.57 239.28C1095.57 240.24 1095.21 240.98 1094.49 241.5C1093.78 242.02 1092.83 242.28 1091.63 242.28ZM1101.96 242L1106.28 228H1109.24L1113.56 242H1111.82L1110.74 238.46H1104.78L1103.7 242H1101.96ZM1105.2 236.94H1110.3L1107.9 229.02H1107.62L1105.2 236.94ZM1115.66 242V228H1117.34V242H1115.66Z" fill="#2A0C4E"/>
<path d="M701.026 191C700.802 191 700.62 191.182 700.62 191.406C700.62 191.631 700.802 191.813 701.026 191.813H703.619C704.547 191.813 705.404 192.309 705.866 193.113L711.237 202.469L713.448 198.647C713.688 198.232 713.689 197.72 713.449 197.305L711.794 194.438C710.566 192.31 708.297 191 705.841 191H701.026Z" fill="url(#paint0_linear_57_8557)"/>
<path d="M694.462 196.29L692.055 200.46C691.942 200.654 692.009 200.902 692.203 201.015C692.398 201.127 692.646 201.06 692.758 200.866L694.055 198.62C694.519 197.817 695.377 197.323 696.304 197.325L707.092 197.351L704.888 193.526C704.649 193.11 704.206 192.854 703.726 192.854L700.415 192.853C697.959 192.853 695.69 194.163 694.462 196.29Z" fill="url(#paint1_linear_57_8557)"/>
<path d="M695.01 199.049L693.354 201.916C692.126 204.043 692.125 206.663 693.353 208.79L695.761 212.96C695.873 213.154 696.121 213.221 696.316 213.108C696.51 212.996 696.577 212.748 696.464 212.553L695.168 210.308C694.704 209.504 694.705 208.514 695.171 207.712L700.588 198.383L696.173 198.378C696.172 198.378 696.172 198.378 696.171 198.378C695.692 198.378 695.249 198.634 695.01 199.049Z" fill="url(#paint2_linear_57_8557)"/>
<path d="M696.017 208.353C695.777 208.768 695.777 209.28 696.016 209.695L697.671 212.562C698.899 214.689 701.169 216 703.625 216H708.439C708.663 216 708.845 215.818 708.845 215.594C708.845 215.369 708.663 215.187 708.439 215.187H705.846C704.918 215.187 704.061 214.691 703.6 213.887L698.229 204.531L696.017 208.353Z" fill="url(#paint3_linear_57_8557)"/>
<path d="M716.708 206.134L715.411 208.38C714.947 209.183 714.089 209.677 713.162 209.675L702.374 209.649L704.578 213.474C704.817 213.89 705.26 214.146 705.74 214.146L709.051 214.147C711.506 214.147 713.776 212.837 715.004 210.71L717.411 206.54C717.523 206.346 717.457 206.097 717.263 205.985C717.199 205.948 717.129 205.931 717.06 205.931C716.92 205.931 716.783 206.004 716.708 206.134Z" fill="url(#paint4_linear_57_8557)"/>
<path d="M713.151 193.892C712.956 194.004 712.89 194.252 713.002 194.447L714.299 196.692C714.762 197.496 714.761 198.486 714.295 199.288L708.879 208.617L713.294 208.622C713.773 208.622 714.217 208.366 714.457 207.951L716.112 205.084C717.341 202.957 717.341 200.337 716.113 198.21L713.706 194.04C713.63 193.91 713.494 193.837 713.354 193.837C713.285 193.837 713.215 193.855 713.151 193.892Z" fill="url(#paint5_linear_57_8557)"/>
</g>
<defs>
<linearGradient id="paint0_linear_57_8557" x1="712.576" y1="201.633" x2="704.662" y2="190.848" gradientUnits="userSpaceOnUse">
<stop stop-color="#7240F4"/>
<stop offset="0.994413" stop-color="#B683F1"/>
<stop offset="1" stop-color="#B683F1"/>
</linearGradient>
<linearGradient id="paint1_linear_57_8557" x1="705.944" y1="196.961" x2="693.14" y2="196.961" gradientUnits="userSpaceOnUse">
<stop stop-color="#7240F4"/>
<stop offset="0.994413" stop-color="#B683F1"/>
<stop offset="1" stop-color="#B683F1"/>
</linearGradient>
<linearGradient id="paint2_linear_57_8557" x1="699.85" y1="199.595" x2="693.177" y2="209.993" gradientUnits="userSpaceOnUse">
<stop stop-color="#7240F4"/>
<stop offset="0.994413" stop-color="#B683F1"/>
<stop offset="1" stop-color="#B683F1"/>
</linearGradient>
<linearGradient id="paint3_linear_57_8557" x1="698.742" y1="205.971" x2="704.795" y2="216.834" gradientUnits="userSpaceOnUse">
<stop stop-color="#7240F4"/>
<stop offset="0.994413" stop-color="#B683F1"/>
<stop offset="1" stop-color="#B683F1"/>
</linearGradient>
<linearGradient id="paint4_linear_57_8557" x1="703.461" y1="210.039" x2="713.858" y2="210.039" gradientUnits="userSpaceOnUse">
<stop stop-color="#7240F4"/>
<stop offset="0.994413" stop-color="#B683F1"/>
<stop offset="1" stop-color="#B683F1"/>
</linearGradient>
<linearGradient id="paint5_linear_57_8557" x1="710.299" y1="207.847" x2="714.411" y2="199.854" gradientUnits="userSpaceOnUse">
<stop stop-color="#7240F4"/>
<stop offset="0.994413" stop-color="#B683F1"/>
<stop offset="1" stop-color="#B683F1"/>
</linearGradient>
<clipPath id="clip0_57_8557">
<rect width="1584" height="396" fill="white"/>
</clipPath>
</defs>
</svg>
