<svg width="1128" height="191" viewBox="0 0 1128 191" fill="none" xmlns="http://www.w3.org/2000/svg">
<g clip-path="url(#clip0_57_8557)">
<rect width="1128" height="191" fill="#FAF8FF"/>
<path d="M-412 131.771C-405.152 125.253 -307.32 -151.002 -88.6659 -36.775C129.988 77.4515 575.612 308.388 746.818 291.626C883.782 278.217 1217.39 -3.04511 1367.07 -142" stroke="#7240F4"/>
<path d="M-347.657 225.647C-332.652 134.761 -272.502 -35.8691 -151.94 8.6941C-1.2374 64.3981 855.516 290.732 1040.47 262.294C1188.43 239.543 1305.99 65.5709 1346.28 -18.5716" stroke="#B683F1"/>
<path d="M-410.703 133.662C-403.691 125.444 -306.618 -148.682 -89.9401 -35.859C127.345 77.1885 581.252 308.032 752.734 291.035C889.92 277.438 1219.17 -1.66273 1366.65 -139.513" stroke="#7341F4"/>
<path d="M-409.23 135.812C-402.031 125.662 -305.821 -146.046 -91.389 -34.818C124.34 76.8897 587.659 307.628 759.457 290.364C896.895 276.552 1221.2 -0.0918579 1366.18 -136.688" stroke="#7543F4"/>
<path d="M-407.581 138.219C-400.173 125.906 -304.929 -143.094 -93.0118 -33.6521C120.975 76.555 594.836 307.175 766.986 289.612C904.706 275.561 1223.47 1.66754 1365.64 -133.523" stroke="#7745F4"/>
<path d="M-405.754 140.884C-398.114 126.176 -303.94 -139.826 -94.8075 -32.3614C117.251 76.1844 602.783 306.674 775.323 288.779C913.355 274.463 1225.99 3.61543 1365.05 -130.019" stroke="#7947F4"/>
<path d="M-403.751 143.806C-395.857 126.472 -302.856 -136.241 -96.778 -30.9457C113.164 75.778 611.497 306.124 784.465 287.866C922.84 273.259 1228.75 5.75182 1364.41 -126.176" stroke="#7B49F4"/>
<path d="M-401.57 146.987C-393.4 126.794 -301.676 -132.34 -98.9213 -29.405C108.719 75.3357 620.981 305.526 794.415 286.872C933.163 271.948 1231.75 8.07672 1363.7 -121.994" stroke="#7D4BF4"/>
<path d="M-399.214 150.426C-390.745 127.142 -300.401 -128.123 -101.24 -27.7395C103.911 74.8576 631.234 304.879 805.171 285.797C944.321 270.532 1235 10.5901 1362.94 -117.473" stroke="#804DF3"/>
<path d="M-396.68 154.122C-387.889 127.517 -299.029 -123.589 -103.73 -25.949C98.7446 74.3436 642.256 304.184 816.735 284.642C956.318 269.009 1238.49 13.292 1362.12 -112.612" stroke="#8250F3"/>
<path d="M-393.97 158.077C-384.836 127.917 -297.563 -118.739 -106.396 -24.0337C93.2163 73.7937 654.047 303.44 829.105 283.407C969.151 267.38 1242.22 16.1825 1361.24 -107.413" stroke="#8553F3"/>
<path d="M-391.082 162.289C-381.582 128.344 -296 -113.573 -109.235 -21.9934C87.3285 73.208 666.607 302.648 842.282 282.091C982.822 265.645 1246.19 19.2614 1360.31 -101.874" stroke="#8856F3"/>
<path d="M-388.019 166.76C-378.13 128.797 -294.343 -108.09 -112.249 -19.8282C81.0792 72.5864 679.935 301.807 856.265 280.694C997.328 263.803 1250.41 22.5288 1359.32 -95.9969" stroke="#8B59F3"/>
<path d="M-384.777 171.488C-374.478 129.276 -292.588 -102.292 -115.435 -17.5381C74.4704 71.9289 694.033 300.918 871.055 279.216C1012.67 261.855 1254.88 25.9847 1358.27 -89.7803" stroke="#8F5CF3"/>
<path d="M-381.36 176.474C-370.628 129.781 -290.74 -96.1766 -118.796 -15.1231C67.5 71.2356 708.9 299.98 886.652 277.659C1028.85 259.801 1259.58 29.6292 1357.17 -83.2246" stroke="#9260F3"/>
<path d="M-377.766 181.718C-366.578 130.312 -288.794 -89.7452 -122.33 -12.5831C60.1702 70.5064 724.536 298.994 903.056 276.02C1045.87 257.641 1264.53 33.4621 1356.01 -76.3297" stroke="#9664F2"/>
<path d="M-373.995 187.22C-362.329 130.869 -286.754 -82.9975 -126.039 -9.91826C52.4788 69.7414 740.94 297.959 920.266 274.301C1063.73 255.374 1269.72 37.4836 1354.79 -69.0958" stroke="#9A68F2"/>
<path d="M-370.047 192.979C-357.88 131.452 -284.617 -75.9335 -129.921 -7.12849C44.4279 68.9405 758.114 296.876 938.283 272.501C1082.42 253.001 1275.16 41.6935 1353.51 -61.5229" stroke="#9E6CF2"/>
<path d="M-365.923 198.997C-353.233 132.062 -282.386 -68.5532 -133.977 -4.2138C36.0155 68.1038 776.056 295.744 957.106 270.621C1101.95 250.522 1280.84 46.092 1352.18 -53.6108" stroke="#A370F2"/>
<path d="M-361.621 205.273C-348.386 132.698 -280.058 -60.8567 -138.207 -1.1742C27.2435 67.2311 794.768 294.564 976.737 268.66C1122.31 247.937 1286.76 50.6789 1350.79 -45.3596" stroke="#A774F2"/>
<path d="M-357.144 211.806C-343.341 133.359 -277.635 -52.8438 -142.611 1.99031C18.1101 66.3227 814.248 293.336 997.174 266.619C1143.51 245.245 1292.93 55.4544 1349.34 -36.7693" stroke="#AC79F1"/>
<path d="M-352.488 218.597C-338.096 134.047 -275.116 -44.5146 -147.188 5.27975C8.61708 65.3783 834.498 292.058 1018.42 264.497C1165.55 242.447 1299.34 60.4184 1347.84 -27.84" stroke="#B17EF1"/>
<path d="M260.88 73V47.8H263.904V73H260.88ZM269.777 73V55.396H272.549V58.384H273.053C273.437 57.544 274.085 56.788 274.997 56.116C275.933 55.42 277.301 55.072 279.101 55.072C280.421 55.072 281.597 55.348 282.629 55.9C283.685 56.452 284.525 57.268 285.149 58.348C285.773 59.428 286.085 60.76 286.085 62.344V73H283.241V62.56C283.241 60.808 282.797 59.536 281.909 58.744C281.045 57.952 279.869 57.556 278.381 57.556C276.677 57.556 275.285 58.108 274.205 59.212C273.149 60.316 272.621 61.96 272.621 64.144V73H269.777ZM297.843 73C296.835 73 296.055 72.724 295.503 72.172C294.975 71.62 294.711 70.864 294.711 69.904V57.88H289.419V55.396H294.711V49.132H297.555V55.396H303.315V57.88H297.555V69.472C297.555 70.192 297.903 70.552 298.599 70.552H302.523V73H297.843ZM315.353 73.504C313.577 73.504 312.017 73.132 310.673 72.388C309.329 71.62 308.285 70.552 307.541 69.184C306.797 67.816 306.425 66.232 306.425 64.432V64C306.425 62.176 306.797 60.58 307.541 59.212C308.285 57.844 309.317 56.788 310.637 56.044C311.957 55.276 313.469 54.892 315.173 54.892C316.829 54.892 318.293 55.252 319.565 55.972C320.837 56.668 321.833 57.676 322.553 58.996C323.273 60.316 323.633 61.864 323.633 63.64V64.936H309.269C309.341 66.832 309.953 68.32 311.105 69.4C312.257 70.456 313.697 70.984 315.425 70.984C316.937 70.984 318.101 70.636 318.917 69.94C319.733 69.244 320.357 68.416 320.789 67.456L323.237 68.644C322.877 69.388 322.373 70.132 321.725 70.876C321.101 71.62 320.273 72.244 319.241 72.748C318.233 73.252 316.937 73.504 315.353 73.504ZM309.305 62.596H320.753C320.657 60.964 320.093 59.692 319.061 58.78C318.053 57.868 316.757 57.412 315.173 57.412C313.565 57.412 312.245 57.868 311.213 58.78C310.181 59.692 309.545 60.964 309.305 62.596ZM328.593 73V47.8H331.437V73H328.593ZM337.418 73V47.8H340.262V73H337.418ZM346.242 73V55.396H349.086V73H346.242ZM347.682 52.66C347.058 52.66 346.53 52.456 346.098 52.048C345.69 51.64 345.486 51.124 345.486 50.5C345.486 49.852 345.69 49.324 346.098 48.916C346.53 48.508 347.058 48.304 347.682 48.304C348.306 48.304 348.822 48.508 349.23 48.916C349.638 49.324 349.842 49.852 349.842 50.5C349.842 51.124 349.638 51.64 349.23 52.048C348.822 52.456 348.306 52.66 347.682 52.66ZM354.202 64.288V63.784C354.202 61.936 354.574 60.352 355.318 59.032C356.062 57.712 357.07 56.692 358.342 55.972C359.614 55.252 361.006 54.892 362.518 54.892C364.366 54.892 365.782 55.252 366.766 55.972C367.774 56.668 368.518 57.448 368.998 58.312H369.502V55.396H372.202V77.104C372.202 78.064 371.938 78.82 371.41 79.372C370.882 79.924 370.114 80.2 369.106 80.2H357.154V77.68H368.35C369.07 77.68 369.43 77.32 369.43 76.6V69.904H368.926C368.638 70.432 368.23 70.948 367.702 71.452C367.174 71.956 366.49 72.376 365.65 72.712C364.81 73.024 363.766 73.18 362.518 73.18C361.006 73.18 359.614 72.82 358.342 72.1C357.07 71.38 356.062 70.36 355.318 69.04C354.574 67.696 354.202 66.112 354.202 64.288ZM363.274 70.66C365.098 70.66 366.574 70.084 367.702 68.932C368.854 67.78 369.43 66.196 369.43 64.18V63.892C369.43 61.852 368.854 60.268 367.702 59.14C366.574 57.988 365.098 57.412 363.274 57.412C361.474 57.412 359.986 57.988 358.81 59.14C357.658 60.268 357.082 61.852 357.082 63.892V64.18C357.082 66.196 357.658 67.78 358.81 68.932C359.986 70.084 361.474 70.66 363.274 70.66ZM386.228 73.504C384.452 73.504 382.892 73.132 381.548 72.388C380.204 71.62 379.16 70.552 378.416 69.184C377.672 67.816 377.3 66.232 377.3 64.432V64C377.3 62.176 377.672 60.58 378.416 59.212C379.16 57.844 380.192 56.788 381.512 56.044C382.832 55.276 384.344 54.892 386.048 54.892C387.704 54.892 389.168 55.252 390.44 55.972C391.712 56.668 392.708 57.676 393.428 58.996C394.148 60.316 394.508 61.864 394.508 63.64V64.936H380.144C380.216 66.832 380.828 68.32 381.98 69.4C383.132 70.456 384.572 70.984 386.3 70.984C387.812 70.984 388.976 70.636 389.792 69.94C390.608 69.244 391.232 68.416 391.664 67.456L394.112 68.644C393.752 69.388 393.248 70.132 392.6 70.876C391.976 71.62 391.148 72.244 390.116 72.748C389.108 73.252 387.812 73.504 386.228 73.504ZM380.18 62.596H391.628C391.532 60.964 390.968 59.692 389.936 58.78C388.928 57.868 387.632 57.412 386.048 57.412C384.44 57.412 383.12 57.868 382.088 58.78C381.056 59.692 380.42 60.964 380.18 62.596ZM399.468 73V55.396H402.24V58.384H402.744C403.128 57.544 403.776 56.788 404.688 56.116C405.624 55.42 406.992 55.072 408.792 55.072C410.112 55.072 411.288 55.348 412.32 55.9C413.376 56.452 414.216 57.268 414.84 58.348C415.464 59.428 415.776 60.76 415.776 62.344V73H412.932V62.56C412.932 60.808 412.488 59.536 411.6 58.744C410.736 57.952 409.56 57.556 408.072 57.556C406.368 57.556 404.976 58.108 403.896 59.212C402.84 60.316 402.312 61.96 402.312 64.144V73H399.468ZM429.647 73.504C427.943 73.504 426.407 73.144 425.039 72.424C423.695 71.68 422.627 70.624 421.835 69.256C421.067 67.888 420.683 66.268 420.683 64.396V64C420.683 62.104 421.067 60.484 421.835 59.14C422.627 57.772 423.695 56.728 425.039 56.008C426.407 55.264 427.943 54.892 429.647 54.892C431.327 54.892 432.755 55.204 433.931 55.828C435.131 56.452 436.067 57.28 436.739 58.312C437.435 59.344 437.879 60.448 438.071 61.624L435.299 62.2C435.179 61.336 434.891 60.544 434.435 59.824C434.003 59.104 433.391 58.528 432.599 58.096C431.807 57.664 430.835 57.448 429.683 57.448C428.507 57.448 427.451 57.712 426.515 58.24C425.603 58.768 424.871 59.524 424.319 60.508C423.791 61.492 423.527 62.668 423.527 64.036V64.36C423.527 65.728 423.791 66.904 424.319 67.888C424.871 68.872 425.603 69.628 426.515 70.156C427.451 70.684 428.507 70.948 429.683 70.948C431.435 70.948 432.767 70.492 433.679 69.58C434.615 68.668 435.191 67.54 435.407 66.196L438.215 66.808C437.951 67.96 437.471 69.052 436.775 70.084C436.079 71.116 435.131 71.944 433.931 72.568C432.755 73.192 431.327 73.504 429.647 73.504ZM451.126 73.504C449.35 73.504 447.79 73.132 446.446 72.388C445.102 71.62 444.058 70.552 443.314 69.184C442.57 67.816 442.198 66.232 442.198 64.432V64C442.198 62.176 442.57 60.58 443.314 59.212C444.058 57.844 445.09 56.788 446.41 56.044C447.73 55.276 449.242 54.892 450.946 54.892C452.602 54.892 454.066 55.252 455.338 55.972C456.61 56.668 457.606 57.676 458.326 58.996C459.046 60.316 459.406 61.864 459.406 63.64V64.936H445.042C445.114 66.832 445.726 68.32 446.878 69.4C448.03 70.456 449.47 70.984 451.198 70.984C452.71 70.984 453.874 70.636 454.69 69.94C455.506 69.244 456.13 68.416 456.562 67.456L459.01 68.644C458.65 69.388 458.146 70.132 457.498 70.876C456.874 71.62 456.046 72.244 455.014 72.748C454.006 73.252 452.71 73.504 451.126 73.504ZM445.078 62.596H456.526C456.43 60.964 455.866 59.692 454.834 58.78C453.826 57.868 452.53 57.412 450.946 57.412C449.338 57.412 448.018 57.868 446.986 58.78C445.954 59.692 445.318 60.964 445.078 62.596ZM479.013 73.504C477.789 73.504 476.673 73.288 475.665 72.856C474.657 72.424 473.865 71.8 473.289 70.984C472.713 70.168 472.425 69.172 472.425 67.996C472.425 66.796 472.713 65.812 473.289 65.044C473.865 64.252 474.657 63.664 475.665 63.28C476.673 62.872 477.801 62.668 479.049 62.668H484.989V61.372C484.989 60.124 484.617 59.14 483.873 58.42C483.153 57.7 482.073 57.34 480.633 57.34C479.217 57.34 478.113 57.688 477.321 58.384C476.529 59.056 475.989 59.968 475.701 61.12L473.037 60.256C473.325 59.272 473.781 58.384 474.405 57.592C475.029 56.776 475.857 56.128 476.889 55.648C477.945 55.144 479.205 54.892 480.669 54.892C482.925 54.892 484.677 55.48 485.925 56.656C487.173 57.808 487.797 59.44 487.797 61.552V69.508C487.797 70.228 488.133 70.588 488.805 70.588H490.425V73H487.941C487.149 73 486.513 72.784 486.033 72.352C485.553 71.896 485.313 71.296 485.313 70.552V70.372H484.881C484.617 70.828 484.257 71.308 483.801 71.812C483.369 72.292 482.769 72.688 482.001 73C481.233 73.336 480.237 73.504 479.013 73.504ZM479.337 71.056C481.017 71.056 482.373 70.564 483.405 69.58C484.461 68.572 484.989 67.168 484.989 65.368V64.972H479.157C478.029 64.972 477.093 65.224 476.349 65.728C475.629 66.208 475.269 66.94 475.269 67.924C475.269 68.908 475.641 69.676 476.385 70.228C477.153 70.78 478.137 71.056 479.337 71.056ZM499.64 73C498.632 73 497.852 72.724 497.3 72.172C496.772 71.62 496.508 70.864 496.508 69.904V57.88H491.216V55.396H496.508V49.132H499.352V55.396H505.112V57.88H499.352V69.472C499.352 70.192 499.7 70.552 500.396 70.552H504.32V73H499.64ZM525.445 73C524.437 73 523.657 72.724 523.105 72.172C522.577 71.62 522.313 70.864 522.313 69.904V57.88H517.021V55.396H522.313V49.132H525.157V55.396H530.917V57.88H525.157V69.472C525.157 70.192 525.505 70.552 526.201 70.552H530.125V73H525.445ZM535.523 73V47.8H538.367V58.204H538.871C539.111 57.676 539.471 57.184 539.951 56.728C540.455 56.248 541.091 55.852 541.859 55.54C542.651 55.228 543.647 55.072 544.847 55.072C546.167 55.072 547.343 55.36 548.375 55.936C549.431 56.488 550.271 57.304 550.895 58.384C551.519 59.44 551.831 60.76 551.831 62.344V73H548.987V62.56C548.987 60.808 548.543 59.536 547.655 58.744C546.791 57.952 545.615 57.556 544.127 57.556C542.423 57.556 541.031 58.108 539.951 59.212C538.895 60.316 538.367 61.96 538.367 64.144V73H535.523ZM565.665 73.504C563.889 73.504 562.329 73.132 560.985 72.388C559.641 71.62 558.597 70.552 557.853 69.184C557.109 67.816 556.737 66.232 556.737 64.432V64C556.737 62.176 557.109 60.58 557.853 59.212C558.597 57.844 559.629 56.788 560.949 56.044C562.269 55.276 563.781 54.892 565.485 54.892C567.141 54.892 568.605 55.252 569.877 55.972C571.149 56.668 572.145 57.676 572.865 58.996C573.585 60.316 573.945 61.864 573.945 63.64V64.936H559.581C559.653 66.832 560.265 68.32 561.417 69.4C562.569 70.456 564.009 70.984 565.737 70.984C567.249 70.984 568.413 70.636 569.229 69.94C570.045 69.244 570.669 68.416 571.101 67.456L573.549 68.644C573.189 69.388 572.685 70.132 572.037 70.876C571.413 71.62 570.585 72.244 569.553 72.748C568.545 73.252 567.249 73.504 565.665 73.504ZM559.617 62.596H571.065C570.969 60.964 570.405 59.692 569.373 58.78C568.365 57.868 567.069 57.412 565.485 57.412C563.877 57.412 562.557 57.868 561.525 58.78C560.493 59.692 559.857 60.964 559.617 62.596ZM588.044 73V47.8H603.56V50.536H591.068V58.96H602.552V61.696H591.068V70.264H603.74V73H588.044ZM615.889 73.504C614.377 73.504 612.985 73.144 611.713 72.424C610.441 71.704 609.433 70.66 608.689 69.292C607.945 67.924 607.573 66.304 607.573 64.432V63.964C607.573 62.092 607.945 60.484 608.689 59.14C609.433 57.772 610.429 56.728 611.677 56.008C612.949 55.264 614.353 54.892 615.889 54.892C617.113 54.892 618.145 55.06 618.985 55.396C619.849 55.708 620.545 56.116 621.073 56.62C621.601 57.1 622.009 57.616 622.297 58.168H622.801V47.8H625.645V73H622.873V70.084H622.369C621.889 70.972 621.145 71.764 620.137 72.46C619.129 73.156 617.713 73.504 615.889 73.504ZM616.645 70.984C618.469 70.984 619.945 70.408 621.073 69.256C622.225 68.08 622.801 66.448 622.801 64.36V64.036C622.801 61.948 622.225 60.328 621.073 59.176C619.945 58 618.469 57.412 616.645 57.412C614.845 57.412 613.357 58 612.181 59.176C611.029 60.328 610.453 61.948 610.453 64.036V64.36C610.453 66.448 611.029 68.08 612.181 69.256C613.357 70.408 614.845 70.984 616.645 70.984ZM630.741 64.288V63.784C630.741 61.936 631.113 60.352 631.857 59.032C632.601 57.712 633.609 56.692 634.881 55.972C636.153 55.252 637.545 54.892 639.057 54.892C640.905 54.892 642.321 55.252 643.305 55.972C644.313 56.668 645.057 57.448 645.537 58.312H646.041V55.396H648.741V77.104C648.741 78.064 648.477 78.82 647.949 79.372C647.421 79.924 646.653 80.2 645.645 80.2H633.693V77.68H644.889C645.609 77.68 645.969 77.32 645.969 76.6V69.904H645.465C645.177 70.432 644.769 70.948 644.241 71.452C643.713 71.956 643.029 72.376 642.189 72.712C641.349 73.024 640.305 73.18 639.057 73.18C637.545 73.18 636.153 72.82 634.881 72.1C633.609 71.38 632.601 70.36 631.857 69.04C631.113 67.696 630.741 66.112 630.741 64.288ZM639.813 70.66C641.637 70.66 643.113 70.084 644.241 68.932C645.393 67.78 645.969 66.196 645.969 64.18V63.892C645.969 61.852 645.393 60.268 644.241 59.14C643.113 57.988 641.637 57.412 639.813 57.412C638.013 57.412 636.525 57.988 635.349 59.14C634.197 60.268 633.621 61.852 633.621 63.892V64.18C633.621 66.196 634.197 67.78 635.349 68.932C636.525 70.084 638.013 70.66 639.813 70.66ZM662.767 73.504C660.991 73.504 659.431 73.132 658.087 72.388C656.743 71.62 655.699 70.552 654.955 69.184C654.211 67.816 653.839 66.232 653.839 64.432V64C653.839 62.176 654.211 60.58 654.955 59.212C655.699 57.844 656.731 56.788 658.051 56.044C659.371 55.276 660.883 54.892 662.587 54.892C664.243 54.892 665.707 55.252 666.979 55.972C668.251 56.668 669.247 57.676 669.967 58.996C670.687 60.316 671.047 61.864 671.047 63.64V64.936H656.683C656.755 66.832 657.367 68.32 658.519 69.4C659.671 70.456 661.111 70.984 662.839 70.984C664.351 70.984 665.515 70.636 666.331 69.94C667.147 69.244 667.771 68.416 668.203 67.456L670.651 68.644C670.291 69.388 669.787 70.132 669.139 70.876C668.515 71.62 667.687 72.244 666.655 72.748C665.647 73.252 664.351 73.504 662.767 73.504ZM656.719 62.596H668.167C668.071 60.964 667.507 59.692 666.475 58.78C665.467 57.868 664.171 57.412 662.587 57.412C660.979 57.412 659.659 57.868 658.627 58.78C657.595 59.692 656.959 60.964 656.719 62.596ZM675.473 77.5V75.7H676.517C677.381 75.7 677.813 75.268 677.813 74.404V73.252H677.309C676.613 73.252 676.025 73.036 675.545 72.604C675.089 72.172 674.861 71.632 674.861 70.984C674.861 70.288 675.089 69.724 675.545 69.292C676.025 68.86 676.613 68.644 677.309 68.644C678.005 68.644 678.581 68.872 679.037 69.328C679.493 69.784 679.721 70.36 679.721 71.056V74.404C679.721 76.468 678.689 77.5 676.625 77.5H675.473ZM692.739 73V47.8H702.387C703.899 47.8 705.243 48.1 706.419 48.7C707.619 49.276 708.567 50.104 709.263 51.184C709.959 52.264 710.307 53.572 710.307 55.108V55.576C710.307 57.088 709.947 58.396 709.227 59.5C708.531 60.58 707.583 61.408 706.383 61.984C705.183 62.56 703.851 62.848 702.387 62.848H695.763V73H692.739ZM695.763 60.112H702.063C703.671 60.112 704.943 59.716 705.879 58.924C706.815 58.108 707.283 56.968 707.283 55.504V55.144C707.283 53.68 706.815 52.552 705.879 51.76C704.967 50.944 703.695 50.536 702.063 50.536H695.763V60.112ZM722.042 73.504C720.266 73.504 718.694 73.132 717.326 72.388C715.982 71.644 714.926 70.6 714.158 69.256C713.414 67.888 713.042 66.28 713.042 64.432V63.964C713.042 62.14 713.414 60.544 714.158 59.176C714.926 57.808 715.982 56.752 717.326 56.008C718.694 55.264 720.266 54.892 722.042 54.892C723.818 54.892 725.378 55.264 726.722 56.008C728.09 56.752 729.146 57.808 729.89 59.176C730.658 60.544 731.042 62.14 731.042 63.964V64.432C731.042 66.28 730.658 67.888 729.89 69.256C729.146 70.6 728.09 71.644 726.722 72.388C725.378 73.132 723.818 73.504 722.042 73.504ZM722.042 70.948C723.914 70.948 725.402 70.36 726.506 69.184C727.634 67.984 728.198 66.376 728.198 64.36V64.036C728.198 62.02 727.634 60.424 726.506 59.248C725.402 58.048 723.914 57.448 722.042 57.448C720.194 57.448 718.706 58.048 717.578 59.248C716.45 60.424 715.886 62.02 715.886 64.036V64.36C715.886 66.376 716.45 67.984 717.578 69.184C718.706 70.36 720.194 70.948 722.042 70.948ZM738.256 73L734.728 55.396H737.608L740.524 71.092H741.028L744.88 55.396H749.596L753.448 71.092H753.952L756.868 55.396H759.748L756.22 73H751.36L747.472 57.304H747.004L743.116 73H738.256ZM772.349 73.504C770.573 73.504 769.013 73.132 767.669 72.388C766.325 71.62 765.281 70.552 764.537 69.184C763.793 67.816 763.421 66.232 763.421 64.432V64C763.421 62.176 763.793 60.58 764.537 59.212C765.281 57.844 766.313 56.788 767.633 56.044C768.953 55.276 770.465 54.892 772.169 54.892C773.825 54.892 775.289 55.252 776.561 55.972C777.833 56.668 778.829 57.676 779.549 58.996C780.269 60.316 780.629 61.864 780.629 63.64V64.936H766.265C766.337 66.832 766.949 68.32 768.101 69.4C769.253 70.456 770.693 70.984 772.421 70.984C773.933 70.984 775.097 70.636 775.913 69.94C776.729 69.244 777.353 68.416 777.785 67.456L780.233 68.644C779.873 69.388 779.369 70.132 778.721 70.876C778.097 71.62 777.269 72.244 776.237 72.748C775.229 73.252 773.933 73.504 772.349 73.504ZM766.301 62.596H777.749C777.653 60.964 777.089 59.692 776.057 58.78C775.049 57.868 773.753 57.412 772.169 57.412C770.561 57.412 769.241 57.868 768.209 58.78C767.177 59.692 766.541 60.964 766.301 62.596ZM785.59 73V55.396H788.362V57.556H788.866C789.178 56.788 789.658 56.224 790.306 55.864C790.954 55.504 791.806 55.324 792.862 55.324H794.95V57.916H792.682C791.41 57.916 790.378 58.276 789.586 58.996C788.818 59.692 788.434 60.784 788.434 62.272V73H785.59ZM806.591 73.504C804.815 73.504 803.255 73.132 801.911 72.388C800.567 71.62 799.523 70.552 798.779 69.184C798.035 67.816 797.663 66.232 797.663 64.432V64C797.663 62.176 798.035 60.58 798.779 59.212C799.523 57.844 800.555 56.788 801.875 56.044C803.195 55.276 804.707 54.892 806.411 54.892C808.067 54.892 809.531 55.252 810.803 55.972C812.075 56.668 813.071 57.676 813.791 58.996C814.511 60.316 814.871 61.864 814.871 63.64V64.936H800.507C800.579 66.832 801.191 68.32 802.343 69.4C803.495 70.456 804.935 70.984 806.663 70.984C808.175 70.984 809.339 70.636 810.155 69.94C810.971 69.244 811.595 68.416 812.027 67.456L814.475 68.644C814.115 69.388 813.611 70.132 812.963 70.876C812.339 71.62 811.511 72.244 810.479 72.748C809.471 73.252 808.175 73.504 806.591 73.504ZM800.543 62.596H811.991C811.895 60.964 811.331 59.692 810.299 58.78C809.291 57.868 807.995 57.412 806.411 57.412C804.803 57.412 803.483 57.868 802.451 58.78C801.419 59.692 800.783 60.964 800.543 62.596ZM827.284 73.504C825.772 73.504 824.38 73.144 823.108 72.424C821.836 71.704 820.828 70.66 820.084 69.292C819.34 67.924 818.968 66.304 818.968 64.432V63.964C818.968 62.092 819.34 60.484 820.084 59.14C820.828 57.772 821.824 56.728 823.072 56.008C824.344 55.264 825.748 54.892 827.284 54.892C828.508 54.892 829.54 55.06 830.38 55.396C831.244 55.708 831.94 56.116 832.468 56.62C832.996 57.1 833.404 57.616 833.692 58.168H834.196V47.8H837.04V73H834.268V70.084H833.764C833.284 70.972 832.54 71.764 831.532 72.46C830.524 73.156 829.108 73.504 827.284 73.504ZM828.04 70.984C829.864 70.984 831.34 70.408 832.468 69.256C833.62 68.08 834.196 66.448 834.196 64.36V64.036C834.196 61.948 833.62 60.328 832.468 59.176C831.34 58 829.864 57.412 828.04 57.412C826.24 57.412 824.752 58 823.576 59.176C822.424 60.328 821.848 61.948 821.848 64.036V64.36C821.848 66.448 822.424 68.08 823.576 69.256C824.752 70.408 826.24 70.984 828.04 70.984ZM862.002 73.504C860.178 73.504 858.75 73.156 857.718 72.46C856.71 71.764 855.978 70.972 855.522 70.084H855.018V73H852.246V47.8H855.09V58.168H855.594C855.882 57.616 856.29 57.1 856.818 56.62C857.346 56.116 858.03 55.708 858.87 55.396C859.734 55.06 860.778 54.892 862.002 54.892C863.538 54.892 864.93 55.264 866.178 56.008C867.45 56.728 868.458 57.772 869.202 59.14C869.946 60.484 870.318 62.092 870.318 63.964V64.432C870.318 66.304 869.934 67.924 869.166 69.292C868.422 70.66 867.414 71.704 866.142 72.424C864.894 73.144 863.514 73.504 862.002 73.504ZM861.246 70.984C863.07 70.984 864.546 70.408 865.674 69.256C866.826 68.08 867.402 66.448 867.402 64.36V64.036C867.402 61.948 866.826 60.328 865.674 59.176C864.546 58 863.07 57.412 861.246 57.412C859.446 57.412 857.958 58 856.782 59.176C855.63 60.328 855.054 61.948 855.054 64.036V64.36C855.054 66.448 855.63 68.08 856.782 69.256C857.958 70.408 859.446 70.984 861.246 70.984ZM877.538 80.2V77.68H887.618C888.314 77.68 888.662 77.32 888.662 76.6V70.192H888.158C887.918 70.696 887.546 71.2 887.042 71.704C886.562 72.184 885.926 72.58 885.134 72.892C884.342 73.18 883.346 73.324 882.146 73.324C880.874 73.324 879.698 73.048 878.618 72.496C877.562 71.944 876.722 71.128 876.098 70.048C875.498 68.968 875.198 67.648 875.198 66.088V55.396H878.042V65.872C878.042 67.6 878.474 68.86 879.338 69.652C880.226 70.444 881.414 70.84 882.902 70.84C884.582 70.84 885.962 70.288 887.042 69.184C888.122 68.08 888.662 66.436 888.662 64.252V55.396H891.506V77.104C891.506 78.064 891.23 78.82 890.678 79.372C890.15 79.924 889.37 80.2 888.338 80.2H877.538ZM260.88 119V93.8H263.904V116.264H276.648V119H260.88ZM280.64 119V101.396H283.484V119H280.64ZM282.08 98.66C281.456 98.66 280.928 98.456 280.496 98.048C280.088 97.64 279.884 97.124 279.884 96.5C279.884 95.852 280.088 95.324 280.496 94.916C280.928 94.508 281.456 94.304 282.08 94.304C282.704 94.304 283.22 94.508 283.628 94.916C284.036 95.324 284.24 95.852 284.24 96.5C284.24 97.124 284.036 97.64 283.628 98.048C283.22 98.456 282.704 98.66 282.08 98.66ZM303.829 126.2V116.228H303.325C303.037 116.756 302.629 117.272 302.101 117.776C301.573 118.28 300.877 118.688 300.013 119C299.173 119.336 298.141 119.504 296.917 119.504C295.381 119.504 293.977 119.144 292.705 118.424C291.457 117.704 290.461 116.66 289.717 115.292C288.973 113.924 288.601 112.304 288.601 110.432V109.964C288.601 108.068 288.973 106.448 289.717 105.104C290.461 103.76 291.469 102.728 292.741 102.008C294.013 101.264 295.405 100.892 296.917 100.892C298.741 100.892 300.157 101.24 301.165 101.936C302.173 102.632 302.917 103.424 303.397 104.312H303.901V101.396H306.673V126.2H303.829ZM297.673 116.984C299.497 116.984 300.973 116.408 302.101 115.256C303.253 114.08 303.829 112.448 303.829 110.36V110.036C303.829 107.948 303.253 106.328 302.101 105.176C300.973 104 299.497 103.412 297.673 103.412C295.873 103.412 294.385 104 293.209 105.176C292.057 106.328 291.481 107.948 291.481 110.036V110.36C291.481 112.448 292.057 114.08 293.209 115.256C294.385 116.408 295.873 116.984 297.673 116.984ZM319.365 119.324C318.093 119.324 316.917 119.048 315.837 118.496C314.781 117.944 313.941 117.128 313.317 116.048C312.717 114.944 312.417 113.612 312.417 112.052V101.396H315.261V111.836C315.261 113.588 315.693 114.86 316.557 115.652C317.445 116.444 318.633 116.84 320.121 116.84C321.801 116.84 323.181 116.288 324.261 115.184C325.341 114.08 325.881 112.436 325.881 110.252V101.396H328.725V119H325.953V116.012H325.449C325.065 116.852 324.405 117.62 323.469 118.316C322.533 118.988 321.165 119.324 319.365 119.324ZM334.676 119V101.396H337.52V119H334.676ZM336.116 98.66C335.492 98.66 334.964 98.456 334.532 98.048C334.124 97.64 333.92 97.124 333.92 96.5C333.92 95.852 334.124 95.324 334.532 94.916C334.964 94.508 335.492 94.304 336.116 94.304C336.74 94.304 337.256 94.508 337.664 94.916C338.072 95.324 338.276 95.852 338.276 96.5C338.276 97.124 338.072 97.64 337.664 98.048C337.256 98.456 336.74 98.66 336.116 98.66ZM350.952 119.504C349.44 119.504 348.048 119.144 346.776 118.424C345.504 117.704 344.496 116.66 343.752 115.292C343.008 113.924 342.636 112.304 342.636 110.432V109.964C342.636 108.092 343.008 106.484 343.752 105.14C344.496 103.772 345.492 102.728 346.74 102.008C348.012 101.264 349.416 100.892 350.952 100.892C352.176 100.892 353.208 101.06 354.048 101.396C354.912 101.708 355.608 102.116 356.136 102.62C356.664 103.1 357.072 103.616 357.36 104.168H357.864V93.8H360.708V119H357.936V116.084H357.432C356.952 116.972 356.208 117.764 355.2 118.46C354.192 119.156 352.776 119.504 350.952 119.504ZM351.708 116.984C353.532 116.984 355.008 116.408 356.136 115.256C357.288 114.08 357.864 112.448 357.864 110.36V110.036C357.864 107.948 357.288 106.328 356.136 105.176C355.008 104 353.532 103.412 351.708 103.412C349.908 103.412 348.42 104 347.244 105.176C346.092 106.328 345.516 107.948 345.516 110.036V110.36C345.516 112.448 346.092 114.08 347.244 115.256C348.42 116.408 349.908 116.984 351.708 116.984ZM402.651 119.504C400.827 119.504 399.195 119.18 397.755 118.532C396.315 117.884 395.175 116.912 394.335 115.616C393.519 114.296 393.111 112.652 393.111 110.684V109.928H396.099V110.684C396.099 112.772 396.711 114.332 397.935 115.364C399.159 116.372 400.731 116.876 402.651 116.876C404.619 116.876 406.119 116.432 407.151 115.544C408.183 114.656 408.699 113.54 408.699 112.196C408.699 111.26 408.459 110.516 407.979 109.964C407.523 109.412 406.875 108.968 406.035 108.632C405.195 108.272 404.211 107.96 403.083 107.696L401.211 107.228C399.747 106.844 398.451 106.376 397.323 105.824C396.195 105.272 395.307 104.552 394.659 103.664C394.035 102.752 393.723 101.588 393.723 100.172C393.723 98.756 394.071 97.532 394.767 96.5C395.487 95.468 396.483 94.676 397.755 94.124C399.051 93.572 400.539 93.296 402.219 93.296C403.923 93.296 405.447 93.596 406.791 94.196C408.159 94.772 409.227 95.636 409.995 96.788C410.787 97.916 411.183 99.344 411.183 101.072V102.584H408.195V101.072C408.195 99.848 407.931 98.864 407.403 98.12C406.899 97.376 406.191 96.824 405.279 96.464C404.391 96.104 403.371 95.924 402.219 95.924C400.563 95.924 399.231 96.296 398.223 97.04C397.215 97.76 396.711 98.792 396.711 100.136C396.711 101.024 396.927 101.744 397.359 102.296C397.791 102.848 398.403 103.304 399.195 103.664C399.987 104 400.935 104.3 402.039 104.564L403.911 105.032C405.375 105.344 406.683 105.776 407.835 106.328C409.011 106.856 409.947 107.588 410.643 108.524C411.339 109.436 411.687 110.636 411.687 112.124C411.687 113.612 411.315 114.908 410.571 116.012C409.827 117.116 408.771 117.98 407.403 118.604C406.059 119.204 404.475 119.504 402.651 119.504Z" fill="#2A0C4E"/>
<path d="M373.749 93C373.507 93 373.311 93.1964 373.311 93.4388C373.311 93.6811 373.507 93.8775 373.749 93.8775H376.55C377.552 93.8775 378.477 94.4132 378.976 95.282L384.777 105.386L387.165 101.259C387.424 100.811 387.425 100.258 387.166 99.8096L385.378 96.7126C384.052 94.4153 381.602 93 378.949 93H373.749Z" fill="url(#paint0_linear_57_8557)"/>
<path d="M366.659 98.7134L364.059 103.216C363.938 103.426 364.01 103.695 364.22 103.816C364.429 103.937 364.698 103.865 364.819 103.655L366.219 101.23C366.72 100.362 367.647 99.8287 368.649 99.8312L380.299 99.8595L377.919 95.7277C377.661 95.2789 377.182 95.0023 376.664 95.0022L373.089 95.0018C370.436 95.0013 367.985 96.4162 366.659 98.7134Z" fill="url(#paint1_linear_57_8557)"/>
<path d="M367.25 101.693L365.462 104.789C364.135 107.086 364.135 109.916 365.461 112.213L368.061 116.716C368.182 116.926 368.451 116.998 368.661 116.877C368.87 116.756 368.942 116.488 368.821 116.278L367.421 113.852C366.92 112.985 366.921 111.915 367.424 111.049L373.274 100.973L368.506 100.969C368.505 100.969 368.505 100.969 368.505 100.969C367.987 100.969 367.509 101.245 367.25 101.693Z" fill="url(#paint2_linear_57_8557)"/>
<path d="M368.337 111.741C368.078 112.189 368.078 112.742 368.336 113.191L370.124 116.287C371.45 118.585 373.901 120 376.553 120H381.753C381.995 120 382.192 119.804 382.192 119.561C382.192 119.319 381.995 119.122 381.753 119.122H378.952C377.95 119.122 377.025 118.587 376.526 117.718L370.726 107.614L368.337 111.741Z" fill="url(#paint3_linear_57_8557)"/>
<path d="M390.685 109.345L389.285 111.77C388.784 112.638 387.858 113.171 386.856 113.169L375.205 113.141L377.585 117.272C377.844 117.721 378.322 117.998 378.84 117.998L382.416 117.998C385.068 117.999 387.519 116.584 388.845 114.287L391.445 109.784C391.566 109.574 391.495 109.305 391.285 109.184C391.216 109.144 391.14 109.125 391.066 109.125C390.914 109.125 390.767 109.204 390.685 109.345Z" fill="url(#paint4_linear_57_8557)"/>
<path d="M386.841 96.123C386.631 96.2441 386.559 96.5124 386.681 96.7224L388.081 99.1477C388.582 100.015 388.58 101.085 388.077 101.951L382.228 112.026L386.996 112.031C387.514 112.032 387.992 111.756 388.251 111.307L390.04 108.211C391.366 105.914 391.367 103.084 390.04 100.787L387.441 96.2835C387.359 96.1427 387.212 96.0641 387.06 96.0641C386.986 96.0641 386.91 96.0831 386.841 96.123Z" fill="url(#paint5_linear_57_8557)"/>
</g>
<defs>
<linearGradient id="paint0_linear_57_8557" x1="386.223" y1="104.484" x2="377.675" y2="92.8354" gradientUnits="userSpaceOnUse">
<stop stop-color="#7240F4"/>
<stop offset="0.994413" stop-color="#B683F1"/>
<stop offset="1" stop-color="#B683F1"/>
</linearGradient>
<linearGradient id="paint1_linear_57_8557" x1="379.059" y1="99.4382" x2="365.232" y2="99.4382" gradientUnits="userSpaceOnUse">
<stop stop-color="#7240F4"/>
<stop offset="0.994413" stop-color="#B683F1"/>
<stop offset="1" stop-color="#B683F1"/>
</linearGradient>
<linearGradient id="paint2_linear_57_8557" x1="372.478" y1="102.283" x2="365.271" y2="113.512" gradientUnits="userSpaceOnUse">
<stop stop-color="#7240F4"/>
<stop offset="0.994413" stop-color="#B683F1"/>
<stop offset="1" stop-color="#B683F1"/>
</linearGradient>
<linearGradient id="paint3_linear_57_8557" x1="371.28" y1="109.169" x2="377.817" y2="120.901" gradientUnits="userSpaceOnUse">
<stop stop-color="#7240F4"/>
<stop offset="0.994413" stop-color="#B683F1"/>
<stop offset="1" stop-color="#B683F1"/>
</linearGradient>
<linearGradient id="paint4_linear_57_8557" x1="376.379" y1="113.562" x2="387.608" y2="113.562" gradientUnits="userSpaceOnUse">
<stop stop-color="#7240F4"/>
<stop offset="0.994413" stop-color="#B683F1"/>
<stop offset="1" stop-color="#B683F1"/>
</linearGradient>
<linearGradient id="paint5_linear_57_8557" x1="383.761" y1="111.194" x2="388.202" y2="102.563" gradientUnits="userSpaceOnUse">
<stop stop-color="#7240F4"/>
<stop offset="0.994413" stop-color="#B683F1"/>
<stop offset="1" stop-color="#B683F1"/>
</linearGradient>
<clipPath id="clip0_57_8557">
<rect width="1128" height="191" fill="white"/>
</clipPath>
</defs>
</svg>
